<svg width="37" height="21" viewBox="0 0 37 21" fill="none" xmlns="http://www.w3.org/2000/svg">
<rect x="0.5" y="0.5" width="36" height="20" rx="2.02643" fill="#FDF6D1" stroke="#67ACEC"/>
<path fill-rule="evenodd" clip-rule="evenodd" d="M26.3987 5.8428C25.8718 5.83964 25.4366 5.40196 25.6007 4.90129C25.9135 3.94681 26.7286 3 28.2835 3C29.8354 3 30.6502 3.94307 30.9644 4.89563C31.1302 5.39825 30.6915 5.83709 30.1623 5.83709C29.8137 5.83709 29.5383 5.5972 29.2617 5.35626C29.1262 5.23824 28.9904 5.11997 28.8456 5.02952C28.7088 4.94403 28.526 4.89139 28.2835 4.89139C28.0389 4.89139 27.855 4.94497 27.7177 5.03218C27.5749 5.12294 27.4408 5.24045 27.3071 5.35769C27.0284 5.60187 26.7511 5.84492 26.3987 5.8428ZM21.2801 5.02952C21.1432 4.94403 20.9604 4.89139 20.7179 4.89139C20.4733 4.89139 20.2894 4.94497 20.1522 5.03218C20.0093 5.12294 19.8753 5.24045 19.7415 5.3577C19.4629 5.60187 19.1856 5.84492 18.8331 5.8428C18.3063 5.83964 17.871 5.40196 18.0351 4.90129C18.348 3.94681 19.163 3 20.7179 3C22.2698 3 23.0847 3.94307 23.3989 4.89563C23.5647 5.39825 23.126 5.83709 22.5967 5.83709C22.2481 5.83709 21.9727 5.5972 21.6961 5.35626C21.5606 5.23824 21.4249 5.11997 21.2801 5.02952ZM28.7726 8.84676C28.1798 9.96231 26.9209 11.5113 24.5003 11.5113C22.0797 11.5113 20.8208 9.96231 20.228 8.84676C19.9393 8.30345 20.3678 7.72853 20.983 7.72853H28.0176C28.6328 7.72853 29.0613 8.30345 28.7726 8.84676Z" fill="#67ACEC"/>
<line x1="3.99936" y1="17.1052" x2="33.9858" y2="17.086" stroke="#67ACEC" stroke-width="2" stroke-linecap="round"/>
<line x1="14.35" y1="16.35" x2="14.35" y2="14.65" stroke="#67ACEC" stroke-width="1.3" stroke-linecap="round"/>
<line x1="23.35" y1="16.35" x2="23.35" y2="14.65" stroke="#67ACEC" stroke-width="1.3" stroke-linecap="round"/>
<line x1="6.35" y1="16.35" x2="6.35" y2="14.65" stroke="#67ACEC" stroke-width="1.3" stroke-linecap="round"/>
<line x1="31.35" y1="16.35" x2="31.35" y2="14.65" stroke="#67ACEC" stroke-width="1.3" stroke-linecap="round"/>
</svg>
