<?xml version="1.0" encoding="UTF-8"?>
<svg id="Layer_3" data-name="Layer 3" xmlns="http://www.w3.org/2000/svg" viewBox="0 0 54.04 48.18">
  <defs>
    <style>
      .cls-1 {
        fill: #007E9C;
      }
    </style>
  </defs>
  <path class="cls-1" d="M21.41,2.19c.46,7.31.51,14.62.46,21.93-.09,7.31-.28,14.62-.89,21.92-.11,1.28-1.23,2.24-2.52,2.13-1.17-.1-2.06-1.04-2.13-2.18-.46-7.31-.51-14.62-.46-21.93.09-7.31.29-14.62.89-21.92.11-1.28,1.23-2.24,2.52-2.13,1.17.1,2.07,1.04,2.14,2.18Z"/>
  <path class="cls-1" d="M2.04,30.07l16.84-.65c3.42-.03,3.43,5.03,0,5,0,0-16.84-.65-16.84-.65-2.36-.14-2.35-3.57,0-3.71h0Z"/>
  <path class="cls-1" d="M1.77,12.92l17.38-.65c3.42-.02,3.42,5.02,0,5,0,0-17.38-.65-17.38-.65-2.36-.14-2.36-3.57,0-3.71h0Z"/>
  <path class="cls-1" d="M33.35,40.8h-.18l-.52,3.06h-4.46V3.64h5.65v10.66l-.25,5.1h.18c2.39-2.41,5.74-3.94,8.84-3.94,7.32,0,11.43,5.53,11.43,14.07,0,9.49-5.9,15-12.36,15-2.69,0-5.84-1.39-8.33-3.74ZM48.25,29.61c0-5.8-2.11-9.44-7.1-9.44-2.27,0-4.8,1.12-7.31,3.7v13.11c2.3,2.08,4.91,2.84,6.76,2.84,4.32,0,7.65-3.66,7.65-10.21Z"/>
</svg>