<svg width="58" height="40" viewBox="0 0 58 40" fill="none" xmlns="http://www.w3.org/2000/svg">
<path d="M34.3268 13.3726V10.6865C35.8788 9.90091 37.5405 9.31171 39.3119 8.91891C41.0834 8.5261 42.902 8.3297 44.7678 8.3297C45.8346 8.3297 46.8589 8.39806 47.8409 8.53477C48.821 8.6734 49.8338 8.86788 50.8794 9.1182V11.7407C49.8704 11.4192 48.8884 11.1958 47.9333 11.0707C46.9745 10.9474 45.9193 10.8858 44.7678 10.8858C42.9001 10.8858 41.0786 11.0957 39.3033 11.5154C37.5241 11.9352 35.8643 12.5542 34.3239 13.3726M34.3239 29.1482V26.3466C35.8027 25.5629 37.4557 24.9747 39.283 24.5819C41.1103 24.1891 42.9386 23.9927 44.7678 23.9927C45.8346 23.9927 46.8589 24.062 47.8409 24.2006C48.821 24.3354 49.8338 24.5289 50.8794 24.7812V27.4037C49.8704 27.0821 48.8884 26.8588 47.9333 26.7336C46.9745 26.6104 45.9193 26.5488 44.7678 26.5488C42.9001 26.5488 41.0786 26.775 39.3033 27.2275C37.5241 27.6781 35.8643 28.3183 34.3239 29.1482ZM34.3239 21.3153V18.5166C35.8759 17.7309 37.5376 17.1427 39.309 16.7518C41.0805 16.361 42.9001 16.1646 44.7678 16.1626C45.8346 16.1626 46.858 16.23 47.838 16.3648C48.82 16.5034 49.8329 16.6989 50.8765 16.9511V19.5737C49.8694 19.2502 48.8874 19.0268 47.9305 18.9036C46.9735 18.7784 45.9193 18.7158 44.7678 18.7158C42.9001 18.7158 41.0786 18.945 39.3033 19.4032C37.5241 19.8596 35.8643 20.4969 34.3239 21.3153ZM12.9971 31.9902C15.5195 31.9902 17.9716 32.28 20.3535 32.8596C22.7353 33.4392 25.0969 34.3827 27.4383 35.6901V7.35348C25.353 5.86507 23.0559 4.74828 20.547 4.00311C18.0342 3.25987 15.5176 2.88825 12.9971 2.88825C11.2642 2.88825 9.74687 2.99126 8.44523 3.19729C7.1436 3.40332 5.69851 3.78842 4.10998 4.35259C3.66711 4.50085 3.35229 4.71458 3.16552 4.99378C2.98067 5.27105 2.88825 5.57624 2.88825 5.90935V31.9469C2.88825 32.4668 3.07309 32.8461 3.44279 33.0849C3.81249 33.3236 4.21973 33.3525 4.66452 33.1715C5.71969 32.8153 6.93949 32.5294 8.32393 32.3137C9.70836 32.098 11.2661 31.9883 12.9971 31.9902ZM30.3266 35.6901C32.668 34.3846 35.0296 33.4411 37.4115 32.8596C39.7933 32.2781 42.2454 31.9893 44.7678 31.9931C46.5008 31.9931 48.0585 32.1 49.441 32.3137C50.8235 32.5274 52.0433 32.8124 53.1004 33.1686C53.5433 33.3535 53.9505 33.3256 54.3222 33.0849C54.6938 32.8442 54.8786 32.4649 54.8767 31.9469V5.90935C54.8767 5.57624 54.7843 5.27972 54.5994 5.01977C54.4146 4.76176 54.0998 4.54032 53.655 4.35548C52.0664 3.79131 50.6213 3.40621 49.3197 3.20018C48.0181 2.99415 46.5008 2.88921 44.7678 2.88536C42.2454 2.88536 39.7298 3.25698 37.2208 4.00022C34.71 4.74539 32.4119 5.86218 30.3266 7.35059V35.6901ZM28.8825 39.878C26.5334 38.2722 24.011 37.0379 21.3153 36.1753C18.6196 35.3127 15.8468 34.8814 12.9971 34.8814C11.4952 34.8814 10.0184 35.0065 8.56654 35.2568C7.11664 35.5091 5.70525 35.9134 4.33237 36.4699C3.2849 36.8877 2.30097 36.7616 1.38058 36.0915C0.460194 35.4215 0 34.4953 0 33.313V5.39813C0 4.68377 0.187736 4.02044 0.563208 3.40813C0.93868 2.79582 1.4653 2.37029 2.14308 2.13153C3.83944 1.38443 5.60416 0.842406 7.43724 0.505444C9.27031 0.168482 11.1236 0 12.9971 0C15.8276 0 18.5868 0.407244 21.2748 1.22173C23.9667 2.03622 26.5026 3.22039 28.8825 4.77427C31.2643 3.22039 33.8002 2.03622 36.4901 1.22173C39.18 0.407244 41.9393 0 44.7678 0C46.6413 0 48.4946 0.168482 50.3277 0.505444C52.1608 0.842406 53.9255 1.38443 55.6219 2.13153C56.2996 2.37221 56.8263 2.79775 57.2017 3.40813C57.5772 4.01852 57.7649 4.68185 57.7649 5.39813V33.313C57.7649 34.4953 57.2682 35.4032 56.2746 36.0367C55.2791 36.6682 54.2201 36.7751 53.0975 36.3573C51.7632 35.8374 50.398 35.4619 49.002 35.2308C47.6079 34.9978 46.1965 34.8814 44.7678 34.8814C41.9181 34.8814 39.1454 35.3127 36.4497 36.1753C33.754 37.0379 31.2316 38.2722 28.8825 39.878Z" fill="#D9917D"/>
</svg>
